# Blender 4.1.1
# www.blender.org
mtllib deck.mtl
o Plane
v 1.000000 0.000000 1.000000
v 1.999057 0.000000 -1.000000
v 0.000000 0.000000 1.000000
v 0.000000 0.000000 -1.000000
v 2.499057 0.000000 -3.000000
v 0.000000 0.000000 -3.000000
v 2.599056 0.000000 -4.500000
v 0.000000 0.000000 -4.500000
v 2.599056 -1.000000 -5.300000
v 0.000000 -1.000000 -5.300000
v 2.599056 -1.000000 -5.300000
v 0.000000 -1.000000 -5.300000
v 2.599056 -1.000000 -8.400000
v 0.000000 -1.000000 -8.400000
v 2.599056 1.400000 -10.000000
v 0.000000 1.400000 -10.000000
v 2.599056 1.400000 -11.000000
v 0.000000 1.400000 -11.000000
v 2.199056 1.400000 -12.000000
v 0.000000 1.400000 -12.000000
v 2.199056 1.400000 -12.000000
v 0.000000 1.400000 -12.000000
v 2.199056 1.400000 -12.000000
v 0.000000 1.400000 -12.000000
v 1.099056 1.400000 -12.500000
v 0.000000 1.400000 -12.500000
v 1.000000 0.000000 1.000000
v 1.999057 0.000000 -1.000000
v 0.000000 0.000000 1.000000
v 2.499057 0.000000 -3.000000
v 2.599056 0.000000 -4.500000
v 2.599056 -1.000000 -5.300000
v 2.599056 -1.000000 -5.300000
v 2.599056 -1.000000 -8.400000
v 2.599056 1.400000 -10.000000
v 2.599056 1.400000 -11.000000
v 2.199056 1.400000 -12.000000
v 2.199056 1.400000 -12.000000
v 2.199056 1.400000 -12.000000
v 1.099056 1.400000 -12.500000
v 0.000000 1.400000 -12.500000
v 0.595876 -2.784553 0.379977
v 1.594933 -2.784553 -1.020023
v 0.000000 -2.784553 0.379977
v 0.000000 -4.290832 -4.921037
v 2.094933 -2.784553 -3.020023
v 1.271482 -4.290832 -3.859809
v 2.194933 -2.784553 -4.520023
v 0.000000 -4.290832 -3.859809
v 2.194933 -2.784553 -5.320023
v 0.000000 -2.784553 -5.320023
v 2.194933 -2.784553 -5.320023
v 0.000000 -2.784553 -5.320023
v 2.194933 -2.784553 -8.420023
v 1.536789 -4.290832 -4.921037
v 2.194933 -2.784553 -10.020023
v 0.000000 -4.290832 -3.116950
v 2.194933 -2.784553 -11.020023
v 0.741369 -4.290832 -3.116950
v 1.794933 -2.784553 -12.020023
v 0.000000 -2.784553 -12.020023
v 0.000000 -4.290832 -4.921037
v 0.000000 -2.784553 -12.020023
v 1.794933 -2.784553 -12.020023
v 0.000000 -2.784553 -12.020023
v 0.694933 -2.784553 -12.520023
v 0.000000 -2.784553 -12.520023
v 0.000000 -2.784553 0.379977
v 0.595876 -2.784553 0.379977
v 1.594933 -2.784553 -1.020023
v 2.094933 -2.784553 -3.020023
v 2.194933 -2.784553 -4.520023
v 2.194933 -2.784553 -5.320023
v 0.000000 -2.784553 -5.320023
v 2.194933 -2.784553 -5.320023
v 0.000000 -2.784553 -5.320023
v 2.194933 -2.784553 -8.420023
v 2.194933 -2.784553 -10.020023
v 2.194933 -2.784553 -11.020023
v 1.794933 -2.784553 -12.020023
v 0.000000 -2.784553 -12.020023
v 1.794933 -2.784553 -12.020023
v 0.000000 -2.784553 -12.020023
v 0.694933 -2.784553 -12.520023
v 0.000000 -2.784553 -12.520023
v 1.589850 -4.290832 -5.716958
v 0.000000 -4.290832 -5.716958
v 1.589850 -4.290832 -6.141448
v 0.000000 -4.290832 -6.141448
v 1.589850 -4.290832 -6.141448
v 0.000000 -4.290832 -6.141448
v 1.589850 -4.290832 -7.786351
v 0.000000 -4.290832 -7.786351
v 1.589850 -4.290832 -8.635334
v 0.000000 -4.290832 -8.635334
v 1.589850 -4.290832 -9.165947
v 0.000000 -4.290832 -9.165947
v 1.377605 -4.290832 -9.696562
v 0.000000 -4.290832 -9.696562
v 1.377605 -4.290832 -9.696562
v 0.000000 -4.290832 -9.696562
v 0.793929 -4.290832 -9.961868
v 0.000000 -4.290832 -9.961868
v 0.000000 -4.290832 -3.859809
v 0.000000 -2.784553 -5.320023
v 0.000000 -2.784553 -5.320023
v 0.000000 -4.290832 -3.116950
v 0.000000 -2.784553 -12.020023
v 0.000000 -2.784553 -12.020023
v 0.000000 -2.784553 -12.020023
v 0.000000 -2.784553 -5.320023
v 0.000000 -2.784553 -5.320023
v 0.000000 -2.784553 -12.020023
v 0.000000 -2.784553 -12.020023
v 0.000000 -4.290832 -5.716958
v 0.000000 -4.290832 -6.141448
v 0.000000 -4.290832 -6.141448
v 0.000000 -4.290832 -7.786351
v 0.000000 -4.290832 -8.635334
v 0.000000 -4.290832 -9.165947
v 0.000000 -4.290832 -9.696562
v 0.000000 -4.290832 -9.696562
v 0.000000 -4.290832 -9.961868
v 0.000000 -4.290832 -4.921037
v 0.000000 -4.290832 -3.859809
v 0.000000 -2.784553 -5.320023
v 0.000000 -2.784553 -5.320023
v 0.000000 -4.290832 -3.116950
v 0.000000 -2.784553 -12.020023
v 0.000000 -2.784553 -12.020023
v 0.000000 -2.784553 -12.020023
v 0.000000 -2.784553 -5.320023
v 0.000000 -2.784553 -5.320023
v 0.000000 -2.784553 -12.020023
v 0.000000 -2.784553 -12.020023
v 0.000000 -4.290832 -5.716958
v 0.000000 -4.290832 -6.141448
v 0.000000 -4.290832 -6.141448
v 0.000000 -4.290832 -7.786351
v 0.000000 -4.290832 -8.635334
v 0.000000 -4.290832 -9.165947
v 0.000000 -4.290832 -9.696562
v 0.000000 -4.290832 -9.696562
v 0.000000 -4.290832 -9.961868
v 2.140651 0.795234 -12.002894
v 2.540651 0.795234 -10.002893
v 1.911794 -0.601272 -1.004324
v 2.511794 -0.601272 -4.504324
v 2.540651 0.795234 -11.002893
v 0.000000 -0.593063 0.867945
v 2.411794 -0.601272 -3.004324
v 2.464870 -1.592547 -5.306648
v 2.464870 -1.592547 -8.406649
v 2.464870 -1.592547 -5.306648
v 0.914779 -0.587200 0.869251
v 1.039691 0.785290 -12.502941
v 0.000000 0.785290 -12.502941
v 2.139691 0.785290 -12.002941
v 0.000000 -0.072565 0.972093
v 1.403400 -0.072565 0.972093
v 2.402457 -0.072565 -1.027907
v 2.902457 -0.072565 -3.027907
v 3.002457 -0.072565 -4.527907
v 3.002457 -1.072565 -5.327907
v 2.315194 -0.673838 -1.032230
v 1.443091 0.712725 -12.530848
v 1.502457 1.327435 -12.527906
v 3.002457 -1.072565 -5.327907
v 3.002457 -1.072565 -8.427906
v 2.915194 -0.673838 -4.532231
v 2.944052 0.722668 -11.030800
v 3.002457 1.327435 -11.027906
v 3.002457 1.327435 -10.027906
v 0.000000 -0.665628 0.840039
v 2.602457 1.327435 -12.027906
v 2.868271 -1.665112 -5.334555
v 0.000000 1.327435 -12.527906
v 2.602457 1.327435 -12.027906
v 2.544051 0.722668 -12.030801
v 2.944052 0.722668 -10.030800
v 2.815194 -0.673838 -3.032230
v 2.868271 -1.665112 -8.434555
v 2.868271 -1.665112 -5.334555
v 1.318180 -0.659766 0.841344
v 0.000000 0.712725 -12.530848
v 2.543091 0.712725 -12.030848
v -1.000000 0.000000 1.000000
v -1.999057 0.000000 -1.000000
v -2.499057 0.000000 -3.000000
v -2.599056 0.000000 -4.500000
v -2.599056 -1.000000 -5.300000
v -2.599056 -1.000000 -5.300000
v -2.599056 -1.000000 -8.400000
v -2.599056 1.400000 -10.000000
v -2.599056 1.400000 -11.000000
v -2.199056 1.400000 -12.000000
v -2.199056 1.400000 -12.000000
v -2.199056 1.400000 -12.000000
v -1.099056 1.400000 -12.500000
v -1.000000 0.000000 1.000000
v -1.999057 0.000000 -1.000000
v -2.499057 0.000000 -3.000000
v -2.599056 0.000000 -4.500000
v -2.599056 -1.000000 -5.300000
v -2.599056 -1.000000 -5.300000
v -2.599056 -1.000000 -8.400000
v -2.599056 1.400000 -10.000000
v -2.599056 1.400000 -11.000000
v -2.199056 1.400000 -12.000000
v -2.199056 1.400000 -12.000000
v -2.199056 1.400000 -12.000000
v -1.099056 1.400000 -12.500000
v -0.595876 -2.784553 0.379977
v -1.594933 -2.784553 -1.020023
v -2.094933 -2.784553 -3.020023
v -1.271482 -4.290832 -3.859809
v -2.194933 -2.784553 -4.520023
v -2.194933 -2.784553 -5.320023
v -2.194933 -2.784553 -5.320023
v -2.194933 -2.784553 -8.420023
v -1.536789 -4.290832 -4.921037
v -2.194933 -2.784553 -10.020023
v -2.194933 -2.784553 -11.020023
v -0.741369 -4.290832 -3.116950
v -1.794933 -2.784553 -12.020023
v -1.794933 -2.784553 -12.020023
v -0.694933 -2.784553 -12.520023
v -0.595876 -2.784553 0.379977
v -1.594933 -2.784553 -1.020023
v -2.094933 -2.784553 -3.020023
v -2.194933 -2.784553 -4.520023
v -2.194933 -2.784553 -5.320023
v -2.194933 -2.784553 -5.320023
v -2.194933 -2.784553 -8.420023
v -2.194933 -2.784553 -10.020023
v -2.194933 -2.784553 -11.020023
v -1.794933 -2.784553 -12.020023
v -1.794933 -2.784553 -12.020023
v -0.694933 -2.784553 -12.520023
v -1.589850 -4.290832 -5.716958
v -1.589850 -4.290832 -6.141448
v -1.589850 -4.290832 -6.141448
v -1.589850 -4.290832 -7.786351
v -1.589850 -4.290832 -8.635334
v -1.589850 -4.290832 -9.165947
v -1.377605 -4.290832 -9.696562
v -1.377605 -4.290832 -9.696562
v -0.793929 -4.290832 -9.961868
v -2.140651 0.795234 -12.002894
v -2.540651 0.795234 -10.002893
v -1.911794 -0.601272 -1.004324
v -2.511794 -0.601272 -4.504324
v -2.540651 0.795234 -11.002893
v -2.411794 -0.601272 -3.004324
v -2.464870 -1.592547 -5.306648
v -2.464870 -1.592547 -8.406649
v -2.464870 -1.592547 -5.306648
v -0.914779 -0.587200 0.869251
v -1.039691 0.785290 -12.502941
v -2.139691 0.785290 -12.002941
v -1.403400 -0.072565 0.972093
v -2.402457 -0.072565 -1.027907
v -2.902457 -0.072565 -3.027907
v -3.002457 -0.072565 -4.527907
v -3.002457 -1.072565 -5.327907
v -2.315194 -0.673838 -1.032230
v -1.443091 0.712725 -12.530848
v -1.502457 1.327435 -12.527906
v -3.002457 -1.072565 -5.327907
v -3.002457 -1.072565 -8.427906
v -2.915194 -0.673838 -4.532231
v -2.944052 0.722668 -11.030800
v -3.002457 1.327435 -11.027906
v -3.002457 1.327435 -10.027906
v -2.602457 1.327435 -12.027906
v -2.868271 -1.665112 -5.334555
v -2.602457 1.327435 -12.027906
v -2.544051 0.722668 -12.030801
v -2.944052 0.722668 -10.030800
v -2.815194 -0.673838 -3.032230
v -2.868271 -1.665112 -8.434555
v -2.868271 -1.665112 -5.334555
v -1.318180 -0.659766 0.841344
v -2.543091 0.712725 -12.030848
vn -0.0000 -1.0000 -0.0000
vn -0.0000 -0.6247 0.7809
vn -0.0000 1.0000 -0.0000
vn -0.0000 -0.5547 -0.8321
vn -0.9874 0.1438 -0.0658
vn -0.0000 0.2173 -0.9761
vn -0.4135 0.0356 0.9098
vn -0.9893 0.1272 0.0716
vn -0.9604 0.1411 -0.2401
vn -0.0000 -0.0048 1.0000
vn -0.9249 0.0876 0.3700
vn -0.9822 0.1714 -0.0773
vn -0.9753 0.2209 -0.0000
vn -0.9954 0.0961 -0.0000
vn -0.8394 0.1809 -0.5126
vn -0.9279 0.3728 -0.0000
vn -0.2275 0.8352 0.5006
vn -0.0000 0.4788 -0.8779
vn -0.8076 0.5541 -0.2019
vn -0.0000 0.8617 0.5074
vn -0.0000 -0.8391 -0.5440
vn -0.0000 -0.4788 0.8779
vn -0.0000 0.9184 -0.3956
vn -0.9086 0.4131 -0.0606
vn -0.0000 0.8391 0.5440
vn -0.5036 0.7857 -0.3594
vn -0.7144 0.6387 0.2858
vn 0.1778 0.9840 0.0119
vn -0.1799 -0.9827 -0.0450
vn 0.0008 -0.3570 0.9341
vn -0.1770 -0.9842 -0.0000
vn -0.1824 -0.9790 -0.0911
vn 0.1551 0.5456 0.8235
vn -0.1554 -0.5480 -0.8219
vn -0.0000 0.3589 -0.9334
vn 0.1799 0.9827 0.0450
vn -0.1461 -0.9356 0.3214
vn 0.1720 0.9827 -0.0688
vn -0.8744 0.1782 -0.4512
vn -0.9638 0.1806 -0.1962
vn -0.9661 0.1537 0.2074
vn -0.1778 -0.9840 -0.0119
vn -0.1720 -0.9827 0.0688
vn -0.0583 -0.6236 0.7795
vn -0.0670 0.0112 -0.9977
vn 0.1823 0.9791 0.0897
vn 0.1461 0.9356 -0.3214
vn 0.1770 0.9842 -0.0000
vn 0.0670 -0.0112 0.9977
vn 0.0589 0.6264 -0.7773
vn -0.0000 -0.3589 0.9334
vn 0.9874 0.1438 -0.0658
vn 0.4135 0.0356 0.9098
vn 0.9893 0.1272 0.0716
vn 0.9604 0.1411 -0.2401
vn 0.9249 0.0876 0.3700
vn 0.9822 0.1714 -0.0773
vn 0.9753 0.2209 -0.0000
vn 0.9954 0.0961 -0.0000
vn 0.8394 0.1809 -0.5126
vn 0.9279 0.3728 -0.0000
vn 0.2275 0.8352 0.5006
vn 0.8076 0.5541 -0.2019
vn 0.9086 0.4131 -0.0606
vn 0.5036 0.7857 -0.3594
vn 0.7144 0.6387 0.2858
vn -0.1778 0.9840 0.0119
vn 0.1799 -0.9827 -0.0450
vn -0.0008 -0.3570 0.9341
vn 0.1770 -0.9842 -0.0000
vn 0.1824 -0.9790 -0.0911
vn -0.1551 0.5456 0.8235
vn 0.1554 -0.5480 -0.8219
vn -0.1799 0.9827 0.0450
vn 0.1461 -0.9356 0.3214
vn -0.1720 0.9827 -0.0688
vn 0.8744 0.1782 -0.4512
vn 0.9638 0.1806 -0.1962
vn 0.9661 0.1537 0.2074
vn 0.1778 -0.9840 -0.0119
vn 0.1720 -0.9827 0.0688
vn 0.0583 -0.6236 0.7795
vn 0.0670 0.0112 -0.9977
vn -0.1823 0.9791 0.0897
vn -0.1461 0.9356 -0.3214
vn -0.1770 0.9842 -0.0000
vn -0.0670 -0.0112 0.9977
vn -0.0589 0.6264 -0.7773
vt 0.500000 0.000000
vt 0.500000 1.000000
vt 1.000000 1.000000
vt 1.000000 0.000000
vt 1.000000 1.000000
vt 0.000000 0.000000
s 0
f 3/1/1 4/2/1 2/3/1 1/4/1
f 4/2/1 6/2/1 5/3/1 2/3/1
f 6/2/1 8/2/1 7/3/1 5/3/1
f 8/2/2 10/2/2 9/3/2 7/3/2
f 10/2/3 12/2/3 11/3/3 9/3/3
f 12/2/1 14/2/1 13/3/1 11/3/1
f 14/2/4 16/2/4 15/3/4 13/3/4
f 16/2/1 18/2/1 17/3/1 15/3/1
f 18/2/1 20/2/1 19/3/1 17/3/1
f 20/2/3 22/2/3 21/3/3 19/3/3
f 22/2/3 24/2/3 23/3/3 21/3/3
f 24/2/1 26/2/1 25/3/1 23/3/1
f 151/5/5 148/3/5 48/3/5 46/3/5
f 150/1/6 155/4/6 42/4/6 44/1/6
f 154/5/3 152/3/3 52/3/3 50/3/3
f 158/3/7 156/3/7 66/3/7 64/3/7
f 153/3/8 146/3/8 56/3/8 54/3/8
f 147/3/9 151/5/9 46/3/9 43/3/9
f 156/3/10 157/2/10 67/2/10 66/3/10
f 149/5/11 145/3/11 60/3/11 58/3/11
f 148/3/12 154/5/12 50/3/12 48/3/12
f 152/3/13 153/3/13 54/3/13 52/3/13
f 11/3/3 13/3/3 34/3/3 33/3/3
f 21/3/3 23/3/3 39/3/3 38/3/3
f 7/3/3 9/3/3 32/3/3 31/3/3
f 17/3/3 19/3/3 37/3/3 36/3/3
f 25/3/3 26/2/3 41/2/3 40/3/3
f 2/3/3 5/3/3 30/3/3 28/3/3
f 13/3/3 15/3/3 35/3/3 34/3/3
f 23/3/3 25/3/3 40/3/3 39/3/3
f 9/3/3 11/3/3 33/3/3 32/3/3
f 19/3/3 21/3/3 38/3/3 37/3/3
f 3/1/3 1/4/3 27/4/3 29/1/3
f 5/3/3 7/3/3 31/3/3 30/3/3
f 15/3/3 17/3/3 36/3/3 35/3/3
f 1/4/3 2/3/3 28/3/3 27/4/3
f 64/3/3 66/3/3 84/3/3 82/3/3
f 54/3/3 56/3/3 78/3/3 77/3/3
f 43/3/3 46/3/3 71/3/3 70/3/3
f 66/3/3 67/2/3 85/2/3 84/3/3
f 51/2/3 50/3/3 52/3/3 53/2/3
f 58/3/3 60/3/3 80/3/3 79/3/3
f 48/3/3 50/3/3 73/3/3 72/3/3
f 60/3/3 61/2/3 81/2/3 80/3/3
f 50/3/3 51/2/3 74/2/3 73/3/3
f 87/2/3 89/2/3 116/2/3 115/2/3
f 52/3/3 54/3/3 77/3/3 75/3/3
f 146/3/14 149/5/14 58/3/14 56/3/14
f 155/4/15 147/3/15 43/3/15 42/4/15
f 78/3/16 79/3/16 96/3/16 94/3/16
f 82/3/17 84/3/17 102/3/17 100/3/17
f 76/2/18 75/3/18 90/3/18 91/2/18
f 70/3/19 71/3/19 55/3/19 47/3/19
f 84/3/20 85/2/20 103/2/20 102/3/20
f 83/2/21 82/3/21 100/3/21 101/2/21
f 72/3/16 73/3/16 88/3/16 86/3/16
f 77/3/16 78/3/16 94/3/16 92/3/16
f 73/3/22 74/2/22 89/2/22 88/3/22
f 53/2/3 52/3/3 75/3/3 76/2/3
f 44/1/3 42/4/3 69/4/3 68/1/3
f 46/3/3 48/3/3 72/3/3 71/3/3
f 56/3/3 58/3/3 79/3/3 78/3/3
f 42/4/3 43/3/3 70/3/3 69/4/3
f 65/2/3 64/3/3 82/3/3 83/2/3
f 57/1/3 59/4/3 47/3/3 49/2/3
f 49/2/3 47/3/3 55/3/3 45/2/3
f 45/2/3 55/3/3 86/3/3 87/2/3
f 87/2/3 86/3/3 88/3/3 89/2/3
f 91/2/3 90/3/3 92/3/3 93/2/3
f 93/2/3 92/3/3 94/3/3 95/2/3
f 95/2/3 94/3/3 96/3/3 97/2/3
f 97/2/3 96/3/3 98/3/3 99/2/3
f 101/2/3 100/3/3 102/3/3 103/2/3
f 68/1/23 69/4/23 59/4/23 57/1/23
f 75/3/16 77/3/16 92/3/16 90/3/16
f 71/3/24 72/3/24 86/3/24 55/3/24
f 80/3/25 81/2/25 99/2/25 98/3/25
f 69/4/26 70/3/26 47/3/26 59/4/26
f 79/3/27 80/3/27 98/3/27 96/3/27
f 65/2/3 83/2/3 114/2/3 110/2/3
f 49/2/3 45/2/3 62/2/3 104/2/3
f 101/2/3 103/2/3 123/2/3 122/2/3
f 95/2/3 97/2/3 120/2/3 119/2/3
f 51/2/3 53/2/3 106/2/3 105/2/3
f 61/6/3 63/6/3 109/6/3 108/6/3
f 74/2/3 51/2/3 105/2/3 111/2/3
f 53/2/3 76/2/3 112/2/3 106/2/3
f 91/2/3 93/2/3 118/2/3 117/2/3
f 45/2/3 87/2/3 115/2/3 62/2/3
f 89/2/3 74/2/3 111/2/3 116/2/3
f 63/6/3 65/6/3 110/6/3 109/6/3
f 76/2/3 91/2/3 117/2/3 112/2/3
f 83/2/3 101/2/3 122/2/3 114/2/3
f 97/2/3 99/2/3 121/2/3 120/2/3
f 57/1/3 49/2/3 104/2/3 107/1/3
f 99/2/3 81/2/3 113/2/3 121/2/3
f 81/2/3 61/2/3 108/2/3 113/2/3
f 93/2/3 95/2/3 119/2/3 118/2/3
f 120/2/3 121/2/3 142/2/3 141/2/3
f 107/1/3 104/2/3 125/2/3 128/1/3
f 113/2/3 108/2/3 129/2/3 134/2/3
f 105/2/3 106/2/3 127/2/3 126/2/3
f 122/2/3 123/2/3 144/2/3 143/2/3
f 104/2/3 62/2/3 124/2/3 125/2/3
f 111/2/3 105/2/3 126/2/3 132/2/3
f 110/2/3 114/2/3 135/2/3 131/2/3
f 112/2/3 117/2/3 138/2/3 133/2/3
f 62/2/3 115/2/3 136/2/3 124/2/3
f 108/6/3 109/6/3 130/6/3 129/6/3
f 121/2/3 113/2/3 134/2/3 142/2/3
f 115/2/3 116/2/3 137/2/3 136/2/3
f 109/6/3 110/6/3 131/6/3 130/6/3
f 117/2/3 118/2/3 139/2/3 138/2/3
f 114/2/3 122/2/3 143/2/3 135/2/3
f 118/2/3 119/2/3 140/2/3 139/2/3
f 116/2/3 111/2/3 132/2/3 137/2/3
f 119/2/3 120/2/3 141/2/3 140/2/3
f 106/2/3 112/2/3 133/2/3 127/2/3
f 148/3/28 151/5/28 181/5/28 170/3/28
f 28/3/29 30/3/29 162/3/29 161/3/29
f 155/4/30 150/1/30 174/1/30 184/4/30
f 35/3/31 36/3/31 172/3/31 173/3/31
f 152/3/3 154/5/3 183/5/3 176/3/3
f 27/4/32 28/3/32 161/3/32 160/4/32
f 146/3/33 153/3/33 182/3/33 180/3/33
f 34/3/34 35/3/34 173/3/34 169/3/34
f 29/1/35 27/4/35 160/4/35 159/1/35
f 151/5/36 147/3/36 165/3/36 181/5/36
f 39/3/37 40/3/37 167/3/37 178/3/37
f 145/3/38 149/5/38 171/5/38 179/3/38
f 160/4/39 161/3/39 165/3/39 184/4/39
f 173/3/14 172/3/14 171/5/14 180/3/14
f 168/3/13 169/3/13 182/3/13 176/3/13
f 163/3/40 164/3/40 183/5/40 170/3/40
f 172/3/11 175/3/11 179/3/11 171/5/11
f 161/3/9 162/3/9 181/5/9 165/3/9
f 169/3/41 173/3/41 180/3/41 182/3/41
f 164/3/3 168/3/3 176/3/3 183/5/3
f 159/1/6 160/4/6 184/4/6 174/1/6
f 162/3/5 163/3/5 170/3/5 181/5/5
f 167/3/10 177/2/10 185/2/10 166/3/10
f 178/3/7 167/3/7 166/3/7 186/3/7
f 30/3/42 31/3/42 163/3/42 162/3/42
f 36/3/43 37/3/43 175/3/43 172/3/43
f 31/3/44 32/3/44 164/3/44 163/3/44
f 158/6/45 39/6/45 178/6/45 186/6/45
f 157/2/35 156/3/35 166/3/35 185/2/35
f 147/3/46 155/4/46 184/4/46 165/3/46
f 156/3/47 158/3/47 186/3/47 166/3/47
f 32/3/3 33/3/3 168/3/3 164/3/3
f 149/5/48 146/3/48 180/3/48 171/5/48
f 153/3/48 152/3/48 176/3/48 182/3/48
f 37/6/49 145/6/49 179/6/49 175/6/49
f 33/3/31 34/3/31 169/3/31 168/3/31
f 154/5/50 148/3/50 170/3/50 183/5/50
f 40/3/51 41/2/51 177/2/51 167/3/51
f 3/1/1 187/4/1 188/3/1 4/2/1
f 4/2/1 188/3/1 189/3/1 6/2/1
f 6/2/1 189/3/1 190/3/1 8/2/1
f 8/2/2 190/3/2 191/3/2 10/2/2
f 10/2/3 191/3/3 192/3/3 12/2/3
f 12/2/1 192/3/1 193/3/1 14/2/1
f 14/2/4 193/3/4 194/3/4 16/2/4
f 16/2/1 194/3/1 195/3/1 18/2/1
f 18/2/1 195/3/1 196/3/1 20/2/1
f 20/2/3 196/3/3 197/3/3 22/2/3
f 22/2/3 197/3/3 198/3/3 24/2/3
f 24/2/1 198/3/1 199/3/1 26/2/1
f 254/5/52 215/3/52 217/3/52 252/3/52
f 150/1/6 44/1/6 213/4/6 258/4/6
f 257/5/3 218/3/3 219/3/3 255/3/3
f 260/3/53 226/3/53 227/3/53 259/3/53
f 256/3/54 220/3/54 222/3/54 250/3/54
f 251/3/55 214/3/55 215/3/55 254/5/55
f 259/3/10 227/3/10 67/2/10 157/2/10
f 253/5/56 223/3/56 225/3/56 249/3/56
f 252/3/57 217/3/57 218/3/57 257/5/57
f 255/3/58 219/3/58 220/3/58 256/3/58
f 192/3/3 205/3/3 206/3/3 193/3/3
f 197/3/3 210/3/3 211/3/3 198/3/3
f 190/3/3 203/3/3 204/3/3 191/3/3
f 195/3/3 208/3/3 209/3/3 196/3/3
f 199/3/3 212/3/3 41/2/3 26/2/3
f 188/3/3 201/3/3 202/3/3 189/3/3
f 193/3/3 206/3/3 207/3/3 194/3/3
f 198/3/3 211/3/3 212/3/3 199/3/3
f 191/3/3 204/3/3 205/3/3 192/3/3
f 196/3/3 209/3/3 210/3/3 197/3/3
f 3/1/3 29/1/3 200/4/3 187/4/3
f 189/3/3 202/3/3 203/3/3 190/3/3
f 194/3/3 207/3/3 208/3/3 195/3/3
f 187/4/3 200/4/3 201/3/3 188/3/3
f 226/3/3 238/3/3 239/3/3 227/3/3
f 220/3/3 234/3/3 235/3/3 222/3/3
f 214/3/3 229/3/3 230/3/3 215/3/3
f 227/3/3 239/3/3 85/2/3 67/2/3
f 51/2/3 53/2/3 219/3/3 218/3/3
f 223/3/3 236/3/3 237/3/3 225/3/3
f 217/3/3 231/3/3 232/3/3 218/3/3
f 225/3/3 237/3/3 81/2/3 61/2/3
f 218/3/3 232/3/3 74/2/3 51/2/3
f 219/3/3 233/3/3 234/3/3 220/3/3
f 250/3/59 222/3/59 223/3/59 253/5/59
f 258/4/60 213/4/60 214/3/60 251/3/60
f 235/3/61 244/3/61 245/3/61 236/3/61
f 238/3/62 247/3/62 248/3/62 239/3/62
f 76/2/18 91/2/18 242/3/18 233/3/18
f 229/3/63 216/3/63 221/3/63 230/3/63
f 239/3/20 248/3/20 103/2/20 85/2/20
f 83/2/21 101/2/21 247/3/21 238/3/21
f 231/3/61 240/3/61 241/3/61 232/3/61
f 234/3/61 243/3/61 244/3/61 235/3/61
f 232/3/22 241/3/22 89/2/22 74/2/22
f 53/2/3 76/2/3 233/3/3 219/3/3
f 44/1/3 68/1/3 228/4/3 213/4/3
f 215/3/3 230/3/3 231/3/3 217/3/3
f 222/3/3 235/3/3 236/3/3 223/3/3
f 213/4/3 228/4/3 229/3/3 214/3/3
f 65/2/3 83/2/3 238/3/3 226/3/3
f 57/1/3 49/2/3 216/3/3 224/4/3
f 49/2/3 45/2/3 221/3/3 216/3/3
f 45/2/3 87/2/3 240/3/3 221/3/3
f 87/2/3 89/2/3 241/3/3 240/3/3
f 91/2/3 93/2/3 243/3/3 242/3/3
f 93/2/3 95/2/3 244/3/3 243/3/3
f 95/2/3 97/2/3 245/3/3 244/3/3
f 97/2/3 99/2/3 246/3/3 245/3/3
f 101/2/3 103/2/3 248/3/3 247/3/3
f 68/1/23 57/1/23 224/4/23 228/4/23
f 233/3/61 242/3/61 243/3/61 234/3/61
f 230/3/64 221/3/64 240/3/64 231/3/64
f 237/3/25 246/3/25 99/2/25 81/2/25
f 228/4/65 224/4/65 216/3/65 229/3/65
f 236/3/66 245/3/66 246/3/66 237/3/66
f 252/3/67 271/3/67 280/5/67 254/5/67
f 201/3/68 262/3/68 263/3/68 202/3/68
f 258/4/69 283/4/69 174/1/69 150/1/69
f 207/3/70 274/3/70 273/3/70 208/3/70
f 255/3/3 276/3/3 282/5/3 257/5/3
f 200/4/71 261/4/71 262/3/71 201/3/71
f 250/3/72 279/3/72 281/3/72 256/3/72
f 206/3/73 270/3/73 274/3/73 207/3/73
f 29/1/35 159/1/35 261/4/35 200/4/35
f 254/5/74 280/5/74 266/3/74 251/3/74
f 211/3/75 277/3/75 268/3/75 212/3/75
f 249/3/76 278/3/76 272/5/76 253/5/76
f 261/4/77 283/4/77 266/3/77 262/3/77
f 274/3/59 279/3/59 272/5/59 273/3/59
f 269/3/58 276/3/58 281/3/58 270/3/58
f 264/3/78 271/3/78 282/5/78 265/3/78
f 273/3/56 272/5/56 278/3/56 275/3/56
f 262/3/55 266/3/55 280/5/55 263/3/55
f 270/3/79 281/3/79 279/3/79 274/3/79
f 265/3/3 282/5/3 276/3/3 269/3/3
f 159/1/6 174/1/6 283/4/6 261/4/6
f 263/3/52 280/5/52 271/3/52 264/3/52
f 268/3/10 267/3/10 185/2/10 177/2/10
f 277/3/53 284/3/53 267/3/53 268/3/53
f 202/3/80 263/3/80 264/3/80 203/3/80
f 208/3/81 273/3/81 275/3/81 209/3/81
f 203/3/82 264/3/82 265/3/82 204/3/82
f 260/6/83 284/6/83 277/6/83 211/6/83
f 157/2/35 185/2/35 267/3/35 259/3/35
f 251/3/84 266/3/84 283/4/84 258/4/84
f 259/3/85 267/3/85 284/3/85 260/3/85
f 204/3/3 265/3/3 269/3/3 205/3/3
f 253/5/86 272/5/86 279/3/86 250/3/86
f 256/3/86 281/3/86 276/3/86 255/3/86
f 209/6/87 275/6/87 278/6/87 249/6/87
f 205/3/70 269/3/70 270/3/70 206/3/70
f 257/5/88 282/5/88 271/3/88 252/3/88
f 212/3/51 268/3/51 177/2/51 41/2/51
